<svg id="Camada_1" data-name="Camada 1" xmlns="http://www.w3.org/2000/svg" viewBox="0 0 800 800"><defs><style>.cls-1{fill:#d89205;}.cls-2{fill:#f1b901;}</style></defs><path class="cls-1" d="M287.34,52l65.83-21.81q26.37-8.73,52.74-17.48a9.49,9.49,0,0,1,6.4-.13Q468.2,31.12,524.17,49.45c3.71,1.21,3.74,2.11,1.25,4.92q-22.17,25-44,50.39a15.39,15.39,0,0,1-6.71,4.56q-31.18,11.34-62.27,22.94a11.67,11.67,0,0,1-8.39.1c-22.09-7.58-44.24-15-66.35-22.53a7.78,7.78,0,0,1-3.9-2.18C318.48,89.23,303.12,70.85,287.34,52Z"/><path class="cls-2" d="M313.73,377.25c-7.54-14.5-14.5-27.87-21.44-41.25-11.61-22.36-23.12-44.76-34.89-67-1.93-3.67-1.26-4.8,2.44-6.33q24.77-10.21,49.21-21.14c3.82-1.7,4.72-.58,5.64,3,7.93,30.38,16.07,60.71,24,91.11.88,3.39,1.82,4.35,5.46,3.19,18.2-5.79,36.48-11.29,54.76-16.79,2.35-.7,3.21-1.73,3.18-4.27-.15-11.36-.08-22.73-.05-34.1a7.48,7.48,0,0,0-1-4.34c-4.69-7.19-9.39-14.38-13.93-21.67-1.13-1.83-2.07-2.09-3.9-1a63.74,63.74,0,0,1-12.91,5.94q5.33-7.22,10.64-14.45c.91-1.24,2.19-1,3.4-1h46.16c1.38,0,2.72-.13,3.72,1.25A128.18,128.18,0,0,1,443.9,263c-2.89-1.92-5.85-3.74-8.65-5.77-1.64-1.19-2.65-1.4-4,.48-5.15,7.22-10.44,14.34-15.72,21.46a6.15,6.15,0,0,0-1.2,3.86c0,11.78.12,23.57,0,35.35,0,2.64,1.29,3.21,3.29,3.78q28.73,8.22,57.42,16.58c2.66.78,3.7.41,4.41-2.53,7.1-29.17,14.38-58.3,21.6-87.45,2.22-9,2.19-9,10.79-5.3q23.07,9.89,46.16,19.74c2.16.92,3.44,1.52,1.95,4.38Q532,320.9,504.39,374.37c-.31.6-.73,1.14-1.23,1.9-8.17-8.55-16.23-16.93-24.19-25.4a10.07,10.07,0,0,0-4.83-2.93q-31.53-9-63-18a9.58,9.58,0,0,0-5.66,0q-30.43,9-60.93,17.9a12,12,0,0,0-5.58,3.33C330.7,359.75,322.41,368.28,313.73,377.25Z"/><path class="cls-1" d="M320.35,382.49c8.46-9.16,16.65-18,24.8-26.86a7.24,7.24,0,0,1,3.58-1.93c18.81-5.62,37.63-11.22,56.42-16.94a10.48,10.48,0,0,1,6.46.08c18.26,5.53,36.53,11.05,54.85,16.38a16.42,16.42,0,0,1,7.49,4.87c7,7.32,13.93,14.67,21.07,21.83,2.14,2.13,1.75,3-.6,4.44Q452.67,410.42,411,436.65c-1.51,1-2.71,1.83-4.77.52C377.82,419,349.3,400.88,320.35,382.49Z"/><path class="cls-2" d="M619,182.19c-14.91,1.17-29.34,2.33-43.79,3.45q-39.33,3-78.67,6.05A8.36,8.36,0,0,0,491.4,194c-5.27,4.69-9.57,11.39-15.95,13.62-6.22,2.17-13.7.72-20.62.88-5.67.14-11.35.41-17,.43a5.31,5.31,0,0,0-4.84,2.45c-2.63,3.74-5.45,7.34-8.29,10.93-.77,1-1.16,2.65-3.19,2.29,4.16-10.09,8.33-20.08,12.39-30.12.82-2,2.05-2.79,4.24-3.18q49.83-8.94,99.62-18.11c1.48-.27,2.94-.61,4.65-1-4.53-4.61-8.82-9.09-13.24-13.44-14.7-14.48-29.4-29-44.24-43.32-2.14-2.07-1.94-3.15-.08-5.18q23.6-25.72,47-51.63c1.77-2,2.68-2.57,4.47.12q40.65,60.77,81.49,121.4C618.12,180.67,618.44,181.24,619,182.19Z"/><path class="cls-2" d="M279.24,55.91,301,80.27C309.62,90,318.2,99.79,327,109.38c2.41,2.63,2.72,4.12-.07,6.86-17.6,17.3-35,34.82-52.42,52.27-1,1.06-2.06,2.16-3.56,3.72,9.51,1.76,18.42,3.43,27.34,5.07q38.18,7,76.35,14c1.57.29,2.83.53,3.58,2.24,4.52,10.41,9.15,20.77,13.72,31.16a6.53,6.53,0,0,1,0,1.76c-3.67-4.84-7.22-9.14-10.3-13.75-2-3-4.4-3.9-7.95-3.91-11.35,0-22.7-.49-34.05-.7a5.55,5.55,0,0,1-4-1.77c-3.74-3.51-7.74-6.74-11.29-10.43-3-3.11-6.41-4.21-10.65-4.53-30.8-2.26-61.58-4.75-92.37-7.16-8.69-.68-17.39-1.32-27-2Z"/><path d="M515,563.63c0-29.38.06-58.77-.07-88.16,0-3.13.76-3.85,3.85-3.84q47,.19,94,0c3.24,0,3.91.95,3.81,4-.24,6.51-.22,13,0,19.54.1,2.8-.8,3.41-3.47,3.4-22.46-.11-44.92,0-67.37-.16-3.59,0-4.24,1-4.19,4.34q.3,21,0,42c0,3,.59,4,3.8,3.91,13-.21,26.06,0,39.09-.15,2.62,0,3.66.54,3.57,3.38q-.3,9.76,0,19.54c.09,2.86-.64,3.74-3.61,3.7-13-.18-26.06,0-39.09-.14-2.71,0-3.8.35-3.77,3.48q.27,24.12,0,48.24c0,2.88.95,3.32,3.5,3.31,23.15-.09,46.3,0,69.45-.14,3.29,0,4.16.85,4,4.07-.26,6.23-.18,12.48,0,18.71.06,2.42-.39,3.31-3.11,3.3q-48.66-.15-97.32,0c-3.26,0-3.09-1.49-3.09-3.72Q515.06,607.93,515,563.63Z"/><path d="M354.21,565.35c.09-18.44,2.4-35.06,9-50.92,13-31.24,42.54-48.89,76.54-46.27,23.06,1.78,41.1,11.81,54.38,30.68,1.46,2.07,1.6,3.18-.68,4.83-5,3.66-9.9,7.58-14.63,11.63-2,1.68-2.88,1.48-4.54-.41-10.07-11.43-22.32-18.95-37.89-19.86-23.87-1.39-41.23,9.32-49.26,31.81-8.84,24.8-8.88,50.17.22,74.87,14.82,40.21,63.25,38.89,84.32,14.81,2.6-3,4.21-3.62,7.34-.77a154.8,154.8,0,0,0,13.37,10.54c2,1.43,1.91,2.34.46,4.15C475.89,651.61,454,661.59,427,659.23c-36.14-3.14-60.83-25.6-69.09-61.93A156.86,156.86,0,0,1,354.21,565.35Z"/><path class="cls-1" d="M618.7,189.82c-6.24,7.58-12.1,14.71-18,21.81q-17.24,20.81-34.48,41.62c-1.24,1.51-2.15,2.38-4.4,1.48-17.72-7.09-35.51-14-53.28-21a18.93,18.93,0,0,1-2.12-1.19c7-4.85,13.69-9.49,20.4-14.12q16.74-11.59,33.51-23.15c1.34-.92,2.57-2,4.4-2.1,17.28-1.18,34.54-2.46,51.81-3.68A11.9,11.9,0,0,1,618.7,189.82Z"/><path class="cls-1" d="M308.34,232.88l-42.26,16.85c-4.11,1.64-8.24,3.23-12.32,4.94-1.53.64-2.59.8-3.89-.72-18.21-21.19-36.51-42.32-55.49-64.29,7.2.44,13.56.77,19.9,1.21,10.63.72,21.25,1.53,31.88,2.24a9.65,9.65,0,0,1,5.08,1.42q27.63,18.42,55.32,36.76A20,20,0,0,1,308.34,232.88Z"/><path d="M402.63,719.6v21c-2.3-2-1.34-4.54-1.53-6.66-.2-2.37-.9-3.37-3.49-3.27-5.26.21-10.53.13-15.79,0-1.94,0-2.71.52-2.69,2.57.08,9.7.1,19.4,0,29.1,0,2.3.91,2.75,2.94,2.76,3.55,0,7.11.31,11.1.51-2.89,1.37-20.2,1.71-26,.12,2.41-.23,4.82-.62,7.23-.62,2.07,0,2.52-.86,2.52-2.75q-.07-32.83,0-65.68c0-2-.63-2.67-2.6-2.63-2.39,0-4.79-.24-7.5-.39,1-1.76,2.2-1.22,3.15-1.23,13.71,0,27.43,0,41.15-.09,2.72,0,3.72.69,3.39,3.44-.54,4.57.34,9.25-1,13.79-1.46-3.92-1.29-8-1.35-12,0-2.24-.7-3-3.09-3-9,.16-18,.11-27,0-2,0-3,.28-2.92,2.65q.19,14.13,0,28.27c0,2.49.92,3,3.15,2.95,4.85-.14,9.71-.26,14.55,0,3.32.21,4.51-1,4.36-4.17A5.38,5.38,0,0,1,402.63,719.6Z"/><path d="M172.24,711.68c0-3.77-.15-7.55.06-11.31.12-2.21-.74-3.21-2.72-3.85A51.88,51.88,0,0,0,141.75,695c-11.32,2.58-17.65,10.38-20.82,21a49.13,49.13,0,0,0-.08,27.87c3.73,13.15,13.52,20.91,27.19,21.66,8.69.47,17.11-.67,25-4.78.78-.41,1.89-2,2.81-.47s-.86,1.74-1.67,2.14c-12.79,6.36-26,7.43-39.28,2-8-3.25-13-9.79-15.65-17.88a51.23,51.23,0,0,1-.43-31.46c5-16.74,18.59-25,38.14-23.33a56.5,56.5,0,0,1,15,2.85c1.41.52,2.58,1,2.5,2.77q-.32,7.15-.65,14.32Z"/><path d="M451.31,717.43c3.19-2,6.58-2,9.92-1.9,2.48.11,1.56,2.34,1.57,3.58.11,13.17.09,26.34.09,39.52,0,6.29,0,6.29,6.23,6.77.64.05,1.28.23,2.69.5-3.28,1.5-6.07,1.06-8.63.81-4.34-.44-.89-4.72-3.17-6.71-4.44,3.82-9.52,6.72-15.74,7.39-13,1.38-20.83-5.24-21-18.3-.15-9-.25-18,.07-27,.14-3.91-1.1-5.16-4.83-4.67a7.39,7.39,0,0,1-4.79-.53c3.49-1.69,6.93-1.42,10.25-1.29,2.35.1,1.44,2.37,1.46,3.65.1,9.15,0,18.3.09,27.45a36.93,36.93,0,0,0,.77,7.42c1.53,7,7.13,11.4,14.33,11.45,4.21,0,8.42-.52,12.08-2.54,4.42-2.44,8-5.6,7.79-11.57-.29-10.11-.18-20.24,0-30.36.05-2.85-.65-4-3.64-3.67A43.83,43.83,0,0,1,451.31,717.43Z"/><path d="M260,750.87a21.53,21.53,0,0,1,0,9.52c-.38,2.12.34,3,2.31,3.53,6.24,1.61,12.5,2.28,18.87.78,3.31-.77,6-2.24,6.79-5.82.92-4,.75-7.73-2.52-10.72a34.91,34.91,0,0,0-9.93-5.9c-4.06-1.77-8.2-3.38-11.75-6.09-7.31-5.58-6.34-15.8,2.05-19.59,7.31-3.29,14.86-2.36,22.35-.29,1.13.31,1.74.79,1.61,1.94-.32,2.89-.7,5.77-1.07,8.65-.1.78-.48,1.29-1.34,1.15s-.85-.92-.8-1.6c0-.28.09-.55.11-.83.44-7.86.44-7.87-7.59-8.84-3.91-.47-7.62.32-11.44,1.19-6.7,1.54-7.77,10.69-3.63,14.78,3.34,3.29,7.49,5.13,11.62,7.06,3.62,1.71,7.34,3.23,10.53,5.72,7.38,5.76,6.22,16.76-2.42,20.3-8.22,3.37-16.58,2-24.78-.6a2,2,0,0,1-1.59-2.18C257.77,758.89,258.19,754.74,260,750.87Z"/><path d="M230.83,766.35c2.8-1.35,7,.11,8.23-1.93,1.42-2.36.54-6.16.54-9.33,0-21.47-.07-42.94.09-64.41,0-3.34-.62-4.81-4.23-4.36-1.76.22-3.73.48-5.45-1.29,3.31-.31,6.61-.69,9.92-.88,2.66-.15,2.19,2,2.2,3.53.06,7.61,0,15.23,0,22.85,0,16.76.13,33.52-.11,50.27-.05,3.51,1,4.62,4.25,4.52a11.18,11.18,0,0,1,5.28,1Z"/><path d="M512.66,717.12c-2.92-.42-4.38.56-4,3.78a20,20,0,0,1-.44,6.47c-2.13-2-1.56-4.53-1.38-6.68.33-3.87-1.12-4.32-4.4-3.51a43.61,43.61,0,0,0-8.27,2.58c-6.37,3-10.75,6.85-9.93,15.15.85,8.5.43,17.16.08,25.73-.15,3.72,1.07,4.92,4.5,4.74a7.06,7.06,0,0,1,4.1,1H474.63c-.29-.4-.21-.6.17-.66,7.21-1.06,7.21-1.06,7.21-8.43,0-11.91-.11-23.82.07-35.73,0-3.13-.6-4.56-4-4.14a9,9,0,0,1-6.21-.91,31,31,0,0,1,11.49-.77c1.2.13.93,1.56,1,2.46.09,1.73,0,3.47,0,5.94a35.59,35.59,0,0,1,21-9.41c1.62-.16,3.38-.48,4,1.76C510.53,716.11,511.89,715.16,512.66,717.12Z"/><path d="M512.66,717.12c-1-1-2.21-.59-3.36-.68,1.86-1.7,4.13-.84,6.14-.73,3.44.19,5.28-.37,5-4.5-.21-3.73.48-7.51.77-11.28h1.39c0,4,.2,7.93-.06,11.88-.21,3,.49,4.15,3.75,3.89a58.62,58.62,0,0,1,12.67.5,27.49,27.49,0,0,1-11.45,1c-4-.33-5.14.84-5,4.94.33,10.79.11,21.6.11,32.4,0,7.88,2.47,10.3,10.47,10.3a29.94,29.94,0,0,1,6.24.44c-4.41,1.55-8.94,2.37-13.46.55s-5.66-5.87-5.71-10.19c-.12-10.8,0-21.61,0-32.41,0-5.86,0-5.85-5.85-6C513.75,717.27,513.2,717.17,512.66,717.12Z"/><path d="M250.1,471.92c-16.34-.51-32.7,0-49-.31-3.67-.06-4.21,1.14-4.2,4.43.13,29.25.07,58.49.07,87.74s0,58.76-.06,88.14c0,2.9.41,4.07,3.76,4,15.52-.21,31,0,46.56-.12,48.49-.43,87.38-35,92.61-82.63C345.71,519.42,304.88,473.62,250.1,471.92Zm47.57,134.8c-14,16.15-32.11,22.83-53,23.06-5.82.06-11.64-.15-17.45.07-2.8.11-3.44-.8-3.42-3.48.11-20.79.06-41.57.06-62.35s0-41.29-.07-61.93c0-2.81.53-3.79,3.55-3.69,12.42.44,24.9-.78,37.2,2.32C316.62,513.87,325.48,574.57,297.67,606.72Z"/><path d="M198.84,715.26c-10,2.6-16,10.32-17,23-.76,10,1.2,19.71,10.39,25.61s19,4.84,28.47.2c1.32-.65,4-1.42,3-3.15-.84-1.55-2.52.55-3.72,1.18-17,8.82-33.13,1.26-35.7-16.67-.36-2.52.11-3.44,2.84-3.34,5.67.19,11.35.06,17,.06v-.59h17.44c1.63,0,2.8-.23,3.15-2.33C227.51,723.35,214.38,711.2,198.84,715.26Zm23.64,22.47c-.4,1.77-1.52,1.29-2.48,1.3-5.79,0-11.58,0-17.37,0v.75c-5.39,0-10.78,0-16.16,0-1.3,0-2.52.27-2.31-1.75,1.55-14.62,10.49-24,26-20.66C217.59,719,224.13,730.39,222.48,737.73Z"/><path d="M640,765.3c-3.52.24-4.24-1.32-4.18-4.64.23-11.36.09-22.73.09-34.1,0-12.89,0-25.78-.05-38.67,0-1.3.88-3.58-1.38-3.64a91.14,91.14,0,0,0-10.15.73c0,.46.07.92.11,1.39,2.29,0,4.58.08,6.86,0,1.75-.09,2.42.46,2.4,2.32-.08,9.83,0,19.66,0,30.15-1.64-.74-2.75-1.26-3.88-1.75-15.52-6.66-31.25,1-34.54,16.84a37.6,37.6,0,0,0-.08,14.87c2.5,12.83,12.66,20,25.73,18.65,4.67-.49,8.64-2.54,12.46-4.75,1.46,1.21-.51,3.9,2,4.07,3.21.21,6.44,0,9.66,0,0-.37,0-.74,0-1.11A33.34,33.34,0,0,0,640,765.3Zm-6.34-24.52v13.3c0,5.73-1.64,8-7.2,9.91-17.09,5.91-31.2-5.82-29.6-24.63a39.66,39.66,0,0,1,.85-5.75c3.44-14.9,21.54-21.67,34.24-12.91,1.51,1,1.74,2.28,1.73,3.87C633.68,730,633.7,735.38,633.7,740.78Z"/><path d="M586.68,765.3c-3.46.1-4.31-1.17-4.22-4.57.27-9.56.21-19.13.07-28.69-.17-10.59-6-17.08-15.58-17.37a55.28,55.28,0,0,0-12.83.76c-6,1.24-6.09,1.15-5.66,7.29.2,2.79-.48,5.85,1.61,8.5,1.36-1.29.83-2.6.84-3.75.13-9.85.11-9.85,10-10.87,12.36-1.27,19,4.53,19.32,16.87a24.48,24.48,0,0,0,0,3.32c.49,2.85-1,3.5-3.44,3.58-8.72.29-17.36,1.43-26,2.42-4.7.54-6.11,2.87-6.47,6.86-.1,1.1-.26,2.2-.35,3.31-.66,8,3.59,13.26,11.57,14.38,8.41,1.19,15.5-1.58,21.72-7.11.84-.75,1.29-2.17,3-2,.19,2.23.39,4.43.55,6.63.06.83,0,1.87,1.13,1.83,3.33-.1,6.73.6,10.43-.55C590.23,764.91,588.34,765.25,586.68,765.3ZM575.41,759c-6.39,5.29-13.49,8.19-21.81,5.66-6.7-2-10.1-12.86-6-18.4,1-1.38,2.69-1.23,4.12-1.47,7.9-1.37,15.92-1.74,23.87-2.58,3.86-.41,5.27.79,4.61,4.55a18.7,18.7,0,0,0,0,2.34C581.41,753.26,578.74,756.28,575.41,759Z"/><path d="M693.08,732.53c-2.06-9.76-9.23-16.83-17.87-17.77-11.7-1.28-20.94,3.37-24.87,13a34.49,34.49,0,0,0,.1,27c3.89,9.33,12.94,13.9,24.18,12.7,9.93-1.05,16.53-7.15,18.51-17.26.55-2.84.75-5.74,1.11-8.62A44.34,44.34,0,0,0,693.08,732.53Zm-2.66,18.66c-3,9.47-6.36,13-17.48,14.23A19.09,19.09,0,0,1,652.51,753a32.9,32.9,0,0,1-.33-23.13c3.26-9.35,10.74-14.06,20.51-13.27,8.92.72,16,7.32,18,16.9a28.56,28.56,0,0,1,.84,8.13A27,27,0,0,1,690.42,751.19Z"/><path d="M342.45,731.41c-4.63-17.8-22-20-33.13-14-9.22,5-11.64,13.79-11.76,23.54a35.55,35.55,0,0,0,1.33,10.67c3,10.38,11.23,16.12,22.85,16,10.79-.11,17.94-5.59,20.72-16.14A39,39,0,0,0,342.45,731.41Zm-1.69,16.42c-1.94,11.67-8.1,17.43-18.84,17.7s-18.67-5.85-21-16.76c-1.56-7.3-1.21-14.57,2-21.5,4.05-8.71,11.85-11.16,19.79-10.57,8.68.63,15.4,7,17.57,16.31a35.68,35.68,0,0,1,1.1,9.06C341.18,744,341.08,745.93,340.76,747.83Z"/></svg>